<svg width="72" height="72" viewBox="0 0 100 100" fill="none" xmlns="http://www.w3.org/2000/svg">
    <path d="M99.8422 53.6165C99.4399 52.7439 98.3671 52.3411 97.4955 52.7439C96.8921 53.0124 95.6852 53.5494 94.2102 53.9522C93.2045 50.3945 93.7408 45.0916 98.3001 42.8765C99.1717 42.4738 99.507 41.3997 99.1047 40.5271C98.7024 39.6545 97.6296 39.3189 96.758 39.7216C90.9919 42.4738 89.3157 49.1863 90.7237 54.5563C89.4498 54.6234 88.1088 54.4892 86.902 54.0193C85.4269 53.4152 84.3541 52.4083 83.5496 50.9315C84.4882 50.3945 85.4269 49.8575 86.2985 49.1863C87.1031 48.6493 87.3042 47.5081 86.7679 46.7698C86.2315 45.9643 85.0917 45.7629 84.3541 46.2999C82.812 47.3739 81.0688 48.3136 79.2585 49.1191C79.7278 46.7026 79.5267 44.219 77.18 42.1381C76.4425 41.534 75.3697 41.6011 74.6992 42.3395C74.0958 43.0779 74.1629 44.1519 74.9004 44.8231C76.3084 46.0985 76.1743 47.7095 75.3027 50.5288C73.8947 50.9315 72.4867 51.2 71.1457 51.3343C71.3469 50.3945 71.4809 49.3876 71.4809 48.3808C71.4809 47.441 70.6764 46.6355 69.7377 46.6355C68.799 46.6355 67.9945 47.441 67.9945 48.3808C67.9945 49.4548 67.7933 50.5288 67.5251 51.5357C66.3853 51.5357 65.2455 51.4014 64.1727 51.2C61.8931 50.7301 58.876 49.589 57.1327 46.8369C56.5963 46.0314 55.5236 45.7629 54.719 46.2999C53.9144 46.8369 53.6462 47.9109 54.1826 48.7164C56.06 51.737 59.2782 53.8179 63.5023 54.6234C64.2398 54.7577 64.9773 54.8919 65.7819 54.959C63.9045 57.4427 60.9544 59.3222 57.1998 60.329C57.1327 59.1879 57.1327 57.8454 57.1998 56.3687C57.2668 55.4289 56.5293 54.5563 55.5236 54.4892C54.5849 54.422 53.7133 55.1604 53.6462 56.1673C53.5121 58.6509 53.5121 60.7989 53.9144 62.7455C53.9144 62.7455 53.9144 62.7455 53.9144 62.8127C53.9144 62.8798 53.9144 62.8798 53.9144 62.9469C54.4508 65.6319 55.7247 67.9142 58.0714 70.1964C57.4009 71.0691 56.7975 72.0088 56.194 73.0157C53.0428 78.52 51.5007 85.2996 53.311 92.2806C51.7018 92.3477 49.9586 92.0792 48.0813 91.3409C48.8188 89.26 49.4222 87.3133 49.9586 85.3667C49.9586 85.2996 50.0256 85.2996 50.0256 85.2325V85.1654C54.1156 69.9279 52.0371 59.5235 43.7231 52.811C43.0527 52.274 42.4492 51.6699 41.8458 51.1329C42.9186 50.2603 43.9243 49.3205 44.863 48.3136C46.0028 49.589 47.0755 50.9315 47.5449 51.6028C47.8801 52.1398 48.4165 52.4083 49.0199 52.4083C49.3552 52.4083 49.6904 52.3411 50.0256 52.1398C50.8302 51.6028 51.0314 50.5288 50.495 49.7233C49.8245 48.7835 48.4165 47.0383 47.2767 45.6958C49.4222 42.9436 51.0984 39.923 52.1712 36.8352C54.2497 37.1709 56.3952 37.3722 58.5407 37.3722C59.4123 37.3722 60.2169 37.3051 61.0885 37.3051C61.2226 40.6614 61.4908 44.0176 63.5693 46.2999C63.9045 46.7026 64.3739 46.8369 64.8432 46.8369C65.2455 46.8369 65.7148 46.7026 66.0501 46.367C66.7876 45.6958 66.7876 44.6218 66.1171 43.8834C64.8432 42.4738 64.6421 39.7887 64.575 36.9024C67.7263 36.4325 70.7434 35.5599 73.4924 34.4187C76.2413 36.9024 80.3983 38.1777 84.6894 38.1777C88.8463 38.1777 93.1374 36.9695 96.4227 34.553C97.2273 33.9489 97.3614 32.8749 96.758 32.0694C96.1546 31.2639 95.0818 31.1296 94.2772 31.7337C89.3827 35.4256 81.404 35.6941 76.9118 32.6735C78.588 31.6666 80.1301 30.5926 81.5381 29.3172C82.2757 28.646 82.2757 27.572 81.6722 26.8336C81.0017 26.0952 79.929 26.0952 79.1915 26.6993C77.18 28.5117 74.4311 30.1898 71.2128 31.4652C69.6707 28.1761 69.4025 24.2828 70.4082 20.7252C72.1514 21.5978 74.1629 22.0677 76.2413 22.0677C79.6608 22.0677 83.2143 20.7923 86.1644 17.7046C86.8349 17.0333 86.8349 15.8922 86.0974 15.2209C85.4269 14.5497 84.2871 14.5497 83.6166 15.2881C79.8619 19.1813 75.1015 19.1813 71.7491 17.5032C72.956 15.4223 74.9004 13.2072 78.1187 11.6633C78.9903 11.2606 79.3926 10.1866 78.9233 9.31393C78.521 8.4413 77.4482 8.10568 76.5766 8.50843C71.9503 10.7236 68.5979 14.5497 67.1228 19.3827C65.7819 23.7458 66.0501 28.5117 67.8604 32.6064C66.7206 32.942 65.5137 33.2105 64.3068 33.4119C63.9716 30.1898 63.167 27.1021 60.1499 25.3568C59.2782 24.887 58.2725 25.1555 57.7361 26.0281C57.2668 26.9007 57.535 27.9076 58.4066 28.4446C60.0828 29.3843 60.6192 31.3981 60.8203 33.8146C58.3396 33.9489 55.7247 33.8817 53.0428 33.4119C53.1098 33.2105 53.1098 33.0762 53.1769 32.8749C53.6462 30.1227 53.5121 27.5048 52.8417 25.1555C60.284 19.9197 65.3126 10.4551 63.7034 2.80279C63.5023 1.86304 62.5636 1.25891 61.6249 1.46029C60.6862 1.66166 60.0828 2.60141 60.284 3.54117C60.5522 4.95079 60.5522 6.42755 60.351 7.97143C55.1213 8.03855 50.6961 5.42067 48.8188 1.05754C48.4165 0.184908 47.4108 -0.217843 46.5392 0.117783C45.6005 0.520534 45.1982 1.52741 45.6005 2.40004C47.9472 7.83718 53.1769 11.1934 59.3453 11.4619C57.8702 15.3552 54.9872 19.1142 51.4336 21.7321C50.562 20.1211 49.4893 18.7114 48.0813 17.3689C47.4108 16.6977 46.271 16.7648 45.6005 17.4361C44.93 18.1744 44.9971 19.2485 45.6675 19.9197C46.9414 21.128 47.8131 22.3362 48.4835 23.6116C47.746 24.0143 46.9414 24.35 46.1369 24.6185C43.1197 25.6253 38.4934 26.2295 33.4648 23.1417C35.6774 20.7923 37.2195 18.0402 38.0911 14.9524C38.7616 15.0867 39.365 15.0867 39.9685 15.0867C43.3879 15.0867 45.3323 13.5428 46.338 12.4017C47.0085 11.6633 46.9414 10.5893 46.2039 9.91805C45.4664 9.2468 44.3936 9.31393 43.7231 10.0523C42.6504 11.2606 40.9071 11.7304 38.7616 11.4619C39.0968 8.84405 38.9627 6.09192 38.4264 3.13841C38.2252 2.19866 37.3536 1.52741 36.4149 1.72879C35.4763 1.93016 34.8058 2.80279 35.0069 3.74254C36.3479 10.8578 34.8058 16.7648 30.7159 20.9266C28.101 18.5772 25.4861 15.1538 23.0724 10.1194C22.6701 9.2468 21.5974 8.91118 20.7257 9.31393C19.8541 9.71668 19.5189 10.7907 19.9212 11.6633C22.2678 16.4963 25.0168 20.3225 28.034 23.2088C25.0838 25.1555 21.5303 26.3637 17.5074 26.6993C17.7086 23.4773 17.1052 20.054 13.1493 17.7717C12.3448 17.3018 11.272 17.5703 10.7356 18.3758C10.2663 19.1813 10.5345 20.2553 11.339 20.7923C13.4175 22.0006 14.2221 23.7458 13.8869 26.8336C11.7413 26.7665 9.5958 26.498 7.31617 26.0281C6.3775 25.8267 5.43883 26.4308 5.23769 27.3706C5.03655 28.3103 5.63998 29.2501 6.57865 29.4515C9.32761 30.0556 12.0095 30.3241 14.6244 30.3241C20.8598 30.3241 26.4919 28.646 30.7829 25.4911C34.0683 27.7733 37.5547 28.9145 41.1753 28.9145H41.2424C42.3822 32.0022 41.5776 35.4256 40.5049 36.7681C39.9014 37.5065 40.0355 38.6476 40.773 39.2517C41.1083 39.5202 41.5106 39.6545 41.8458 39.6545C42.3822 39.6545 42.8515 39.4531 43.1868 38.9832C44.93 36.7681 45.8687 32.4721 44.7289 28.5117C45.5334 28.3775 46.338 28.109 47.1426 27.8405C47.9472 27.572 48.7517 27.2363 49.4893 26.9007C49.8916 28.8473 49.7575 30.6597 49.5563 32.2036C48.6847 38.1106 44.6618 44.2861 39.5662 48.4479C36.8172 44.4875 36.549 40.6614 36.9513 37.8421C37.0854 36.9024 36.4149 35.9626 35.4763 35.8284C34.5376 35.6941 33.5989 36.3654 33.4648 37.3051C33.3978 37.8421 33.3307 38.3791 33.3307 38.9161C32.3921 38.7147 31.6545 38.2449 31.1852 37.775C30.1124 36.7681 29.509 35.2914 29.509 33.6804C29.509 32.7406 28.7044 31.9351 27.7658 31.9351C26.8271 31.9351 26.0225 32.7406 26.0225 33.6804C26.0225 36.2311 27.0282 38.6476 28.8385 40.3257C30.1124 41.534 31.7886 42.2724 33.5319 42.4738C33.9342 45.293 35.0069 47.978 36.7502 50.4616C35.9456 50.9315 35.141 51.4014 34.3365 51.737C33.4648 52.1398 33.0625 53.1467 33.4648 54.0864C33.733 54.7577 34.4035 55.0933 35.074 55.0933C35.3422 55.0933 35.5433 55.0262 35.8115 54.959C36.8843 54.4892 37.957 53.885 39.0298 53.2138C39.8344 54.0193 40.6389 54.8248 41.5776 55.5632C48.3494 61.0674 50.2268 69.7266 47.1426 82.4132C44.5277 80.7351 42.5833 76.8418 40.5719 72.5458C42.2481 71.4718 43.8572 69.7937 44.3936 67.6457C44.7289 66.1689 44.6618 63.9538 42.4492 61.403C41.7788 60.6647 40.706 60.5975 39.9685 61.2688C39.2309 61.94 39.1639 63.014 39.8344 63.7524C40.8401 64.8936 41.2424 65.9676 41.0412 66.9073C40.8401 67.8471 40.1026 68.6526 39.2309 69.3238C38.3593 67.4443 37.4877 65.4306 36.4149 63.6182C36.3479 63.4839 36.2808 63.3497 36.2138 63.2154C34.2694 59.7249 31.8557 56.6372 28.7044 55.0262C29.3079 51.3343 28.9726 47.8438 27.7658 44.756V44.6889C26.9612 42.6751 25.8214 40.9299 24.3463 39.386C23.6758 38.7147 22.536 38.6476 21.8656 39.386C21.1951 40.0572 21.128 41.1984 21.8656 41.8696C22.7372 42.7423 23.4077 43.7491 24.0111 44.8231C20.3905 46.904 15.5631 47.6424 10.9368 47.1054C10.9368 44.756 10.6686 42.6751 10.1992 40.8627C12.3448 39.923 14.4232 39.386 16.1665 39.386C16.2335 39.386 16.3006 39.386 16.3006 39.386C17.2393 39.386 18.0438 38.6476 18.0438 37.6407C18.0438 36.701 17.3063 35.8955 16.3006 35.8955C14.021 35.8955 11.4731 36.4325 8.92532 37.6407C8.0537 36.0297 6.98093 34.553 5.50588 33.2105C4.76835 32.5392 3.69559 32.6064 3.02511 33.2776C2.35463 34.016 2.42168 35.09 3.09216 35.7612C5.90817 38.3791 7.18208 41.4669 7.31617 46.4341C5.57293 45.8971 4.03083 45.2259 2.68987 44.4204C1.8853 43.8834 0.812532 44.1519 0.27615 45.0245C-0.260233 45.83 0.00795844 46.904 0.87958 47.441C3.15921 48.8506 5.84112 49.7904 8.59008 50.3274C8.65713 50.3274 8.79122 50.3274 8.85827 50.3945C10.4674 50.663 12.0766 50.7973 13.6857 50.7973C17.7756 50.7973 21.7985 49.9246 25.0839 48.1794C25.4861 49.9918 25.5532 51.9384 25.285 54.0193C23.1395 53.7508 20.7257 54.0864 17.9768 55.1604C14.5573 53.8179 11.0038 53.4823 7.65141 54.1535C7.58436 54.1535 7.58436 54.1535 7.51732 54.1535C5.30474 54.6234 3.15921 55.5632 1.28187 56.9057C0.477293 57.4427 0.343198 58.5838 0.87958 59.3222C1.41596 60.1277 2.55578 60.2619 3.2933 59.7249C4.09788 59.1208 5.03655 58.6509 5.97522 58.2482C6.10931 60.5975 6.57865 62.8798 7.45027 64.4237C7.78551 65.0278 8.38894 65.3634 8.99237 65.3634C9.26056 65.3634 9.52875 65.2963 9.79694 65.1621C10.6686 64.6922 10.9368 63.6182 10.4674 62.8127C9.93104 61.8058 9.39466 59.9263 9.39466 57.4427C11.6072 57.1742 13.9539 57.5098 16.1665 58.3153C16.5688 64.5579 11.5402 68.7868 6.17636 70.2636C5.23769 70.5321 4.70131 71.4718 4.9695 72.4116C5.17064 73.2171 5.90817 73.687 6.64569 73.687C6.77979 73.687 6.98093 73.6869 7.11503 73.6198C7.85256 73.4184 8.59008 73.1499 9.26056 72.8814C9.86399 74.4924 10.3333 76.7747 9.72989 79.1241C9.4617 80.0638 10.0651 81.0036 11.0038 81.2721C11.1379 81.3392 11.272 81.3392 11.4061 81.3392C12.2107 81.3392 12.8811 80.8022 13.0823 79.9967C13.9539 76.6404 13.2164 73.4856 12.4118 71.3376C17.7086 68.0484 19.9212 62.8798 19.653 58.181C25.7543 55.9659 29.3079 58.718 32.6603 64.4908C31.7216 66.9073 30.3806 68.9882 28.6374 70.7334C28.3692 68.1827 27.4305 66.3703 25.6873 64.6251C25.0168 63.9538 23.877 63.9538 23.2065 64.6251C22.536 65.2963 22.536 66.4374 23.2065 67.1087C24.6145 68.5183 25.285 69.8608 25.1509 73.3513C23.3406 74.4253 21.3292 75.3651 18.9825 76.0363C18.0438 76.3048 17.5074 77.3117 17.8427 78.2515C18.0438 78.9898 18.7814 79.5268 19.5189 79.5268C19.653 79.5268 19.8541 79.5268 20.0553 79.4597C20.2564 79.3926 20.4575 79.3255 20.6587 79.2583C21.128 82.5475 20.4575 84.6955 18.3791 86.7763C17.7086 87.4476 17.7086 88.5887 18.3791 89.26C18.7143 89.5956 19.1836 89.797 19.5859 89.797C20.0553 89.797 20.4575 89.5956 20.8598 89.26C23.877 86.1722 24.8827 82.7488 23.944 77.983C25.352 77.3788 26.6259 76.6404 27.7658 75.9021C28.6374 75.298 29.442 74.6938 30.1795 74.0226C31.8557 77.0432 33.0625 79.9296 33.3307 82.7488C30.7159 82.6146 28.3021 83.6886 26.76 85.1654C26.0896 85.8366 26.0225 86.9106 26.693 87.649C27.0282 87.9846 27.4976 88.186 27.9669 88.186C28.3692 88.186 28.8385 88.0517 29.1738 87.7161C30.1124 86.8435 31.5204 86.1722 33.0625 86.3065C32.4591 88.5216 31.0511 90.7367 28.5033 92.9519C27.7658 93.556 27.6987 94.6971 28.3021 95.4355C28.6374 95.8382 29.1067 96.0396 29.6431 96.0396C30.0454 96.0396 30.4477 95.9054 30.7829 95.6369C40.8401 87.0448 36.2138 77.5802 32.7273 71.4718C33.4648 70.5992 34.0683 69.5923 34.6046 68.5854C35.141 69.7266 35.6774 70.9348 36.2808 72.1431C36.3479 72.3444 36.4149 72.4787 36.549 72.6801C39.1639 78.52 41.7117 84.0242 46.0028 86.1051C44.93 89.6627 43.5891 93.4889 41.8458 97.5835C41.4435 98.4561 41.9129 99.5301 42.7845 99.8658C42.9856 99.9329 43.2538 100 43.455 100C44.1254 100 44.7959 99.5972 45.0641 98.926C45.6675 97.5164 46.2039 96.1739 46.6733 94.8314C48.7517 95.5697 50.6961 95.9725 52.5735 95.9725C53.5792 95.9725 54.5849 95.8382 55.5236 95.6369C55.6577 95.6369 55.7918 95.5697 55.9259 95.5697C55.9929 95.5697 56.0599 95.5026 56.127 95.4355C58.7419 94.63 61.0215 92.8847 62.9659 90.2669C65.6478 92.3477 68.5308 93.4217 71.4809 93.4217C73.3583 93.4217 75.3027 93.019 77.2471 92.2135C78.1187 91.8107 78.588 90.8039 78.1857 89.9312C77.7834 89.0586 76.7777 88.5887 75.9061 88.9915C71.8832 90.6696 68.2627 90.1326 64.7762 87.3134C65.0444 86.7764 65.3126 86.3065 65.5807 85.7023C65.983 84.8297 65.5807 83.7557 64.7091 83.353C63.8375 82.9502 62.7647 83.353 62.3624 84.2256C61.9602 85.1653 61.4908 85.9708 61.0215 86.7092C61.0215 86.7092 61.0215 86.7092 61.0215 86.7763C59.6805 89.0586 58.1384 90.6025 56.3952 91.5422C55.0542 86.2393 55.9259 81.0707 58.0043 76.6404C60.9544 78.52 64.8432 79.5268 68.5308 79.5268C68.5979 79.5268 68.6649 79.5268 68.6649 79.5268C68.6649 79.5268 68.6649 79.594 68.732 79.594C70.8775 83.2187 74.7663 84.4941 78.8562 84.4941C79.3255 84.4941 79.7949 84.4941 80.2642 84.427C80.3313 84.427 80.4654 84.427 80.5324 84.427C80.5995 84.427 80.6665 84.427 80.7336 84.427C80.8676 84.427 81.0017 84.3598 81.0688 84.3598C83.2814 84.0913 85.4269 83.5543 87.3713 82.8831C88.31 82.5475 88.7122 81.5406 88.377 80.6008C88.0418 79.6611 87.036 79.2583 86.0974 79.594C84.6223 80.131 83.2814 80.5337 82.0075 80.7351C81.8063 76.6405 82.8791 73.3513 85.1587 71.0019C87.5724 68.5183 91.126 67.3101 95.1488 67.7128C96.0875 67.7799 96.9591 67.1087 97.0262 66.1018C97.0932 65.1621 96.4227 64.2894 95.417 64.2223C90.3884 63.7524 85.6951 65.3634 82.5438 68.5854C80.3983 70.8006 78.1187 74.6938 78.4539 81.0707C75.705 81.0036 73.7606 80.131 72.4867 78.9898C72.8219 78.9227 73.1571 78.7885 73.4924 78.7213C74.4311 78.3857 74.9004 77.3788 74.5651 76.5062C74.2299 75.5665 73.2242 75.0966 72.3526 75.4322C71.8832 75.6336 71.3469 75.7007 70.8775 75.835C70.5423 73.2842 71.8832 70.2636 74.7663 67.7128C75.5038 67.0416 75.5709 65.9676 74.9004 65.2292C74.2299 64.4908 73.1572 64.4237 72.4196 65.0949C68.732 68.3841 66.9217 72.4116 67.324 76.0363C64.575 75.9021 61.692 75.0294 59.5464 73.6198C60.0828 72.8143 60.6862 72.0088 61.2897 71.2033C62.4965 69.7937 63.7704 68.5183 65.1785 67.4443C65.916 66.8402 66.0501 65.7662 65.5137 64.9607C64.9103 64.2223 63.8375 64.0881 63.0329 64.6251C61.8931 65.4977 60.7533 66.5046 59.7476 67.6457C58.5407 66.5046 57.7361 65.3634 57.1998 64.0209C63.3682 62.4099 67.5922 59.255 69.7377 55.0262C71.1457 54.959 72.5537 54.7577 74.0288 54.422C73.1572 57.9797 73.2242 62.2085 79.2585 64.6922C79.4596 64.7593 79.7278 64.8264 79.929 64.8264C80.5995 64.8264 81.2699 64.4237 81.5381 63.7524C81.8734 62.8798 81.4711 61.8058 80.5995 61.4702C76.3084 59.7249 76.6436 57.5769 77.9846 53.348C78.7892 53.0795 79.5937 52.7439 80.3983 52.4083C81.6052 54.6905 83.3484 56.3015 85.628 57.2413C87.1031 57.8454 88.6452 58.0468 90.1202 58.0468C93.8749 58.0468 97.3614 56.6372 99.0376 55.8317C99.8422 55.496 100.244 54.4892 99.8422 53.6165Z" fill="#E43362"/>
</svg>